<svg xmlns="http://www.w3.org/2000/svg" width="30" height="44" viewBox="0 0 30 44"><g fill="#fff"><path d="M26.162 14.298c-.65 0-1.258.178-1.793.47-.08-2.024-1.777-3.663-3.81-3.663-.976 0-1.856.38-2.527.99-.685-.963-1.805-1.598-3.075-1.598-.666 0-1.282.188-1.826.49v-7.21C13.132 1.695 11.438 0 9.356 0S5.58 1.694 5.58 3.777v7.98c-.546-.296-1.162-.48-1.818-.48-2.04 0-3.7 1.658-3.7 3.698V29.06C.06 37.298 6.76 44 15 44c8.237 0 14.94-6.702 14.94-14.94V18.076c0-2.083-1.696-3.777-3.778-3.777zm0 2c.98 0 1.777.797 1.777 1.777v2.604c0 .978-.798 1.774-1.778 1.774s-1.776-.797-1.776-1.775c0-.02-.01-.036-.01-.054V18.13c0-.02.01-.035.01-.054 0-.98.797-1.778 1.776-1.778zm-7.377-1.416c0-.98.797-1.777 1.775-1.777.976 0 1.79.792 1.815 1.738v6.33c0 1.048-.814 1.9-1.815 1.9h-.002c-.474 0-.92-.186-1.254-.52-.336-.337-.52-.783-.52-1.258v-6.413zm-2.05 6.868c0 .98-.798 1.777-1.777 1.777-.99 0-1.826-.813-1.826-1.777v-7.48c0-.978.846-1.774 1.826-1.774s1.776.797 1.776 1.775v7.48zM15 42C7.865 42 2.06 36.195 2.06 29.06V14.977c0-.937.763-1.7 1.7-1.7.97 0 1.82.795 1.82 1.7V25.818c0 .553.447 1 1 1s1-.447 1-1V3.777C7.58 2.797 8.375 2 9.355 2s1.776.797 1.776 1.777V21.75c0 2.083 1.716 3.777 3.826 3.777 1.228 0 2.31-.598 3-1.507.703.675 1.622 1.052 2.6 1.052h.003c1.266 0 2.38-.64 3.073-1.61.67.61 1.554.992 2.53.992.645 0 1.244-.178 1.776-.465v5.07C27.937 36.195 22.133 42 15 42zM9.853 24.873c-.528-.16-1.087.137-1.248.666-.16.527.137 1.086.666 1.247 2.877.874 5.318 2.77 6.877 5.34.188.312.518.482.855.482.177 0 .355-.048.518-.146.473-.286.623-.9.336-1.374-1.813-2.99-4.656-5.198-8.003-6.217z"/></g></svg>