<svg xmlns="http://www.w3.org/2000/svg" width="125" height="105" viewBox="0 0 125 105"><path fill="#fff" d="M114.55 56.845c12.59-13.148 12.43-34.082-.507-47.017-12.526-12.526-32.55-13.075-45.747-1.664-.212.124-.41.27-.594.453L62.5 13.82l-5.204-5.203c-.182-.182-.382-.33-.594-.454-13.195-11.41-33.22-10.86-45.745 1.665-12.934 12.934-13.098 33.865-.51 47.014.067.085.137.165.215.243L41.638 88.06l13 13.002c2.3 2.3 5.013 3.506 7.87 3.506.115 0 .232-.002.35-.006 2.955-.104 5.873-1.514 8.44-4.08 4.173-4.172 43.25-43.637 43.25-43.637zm-4.802-42.92c10.854 10.85 10.66 28.506-.196 39.358L87.908 75.126c-.447-1.12-1.022-2.15-1.902-3.03l-.553-.6c1.02-.438 2.005-1.072 2.838-1.904 3.516-3.515 3.528-9.233.013-12.75L76.65 45.18c1.018-.43 1.976-1.058 2.808-1.887 1.75-1.753 2.613-4.064 2.587-6.365 6.83-.617 13.294-3.412 18.442-8.025 1.19-1.067 1.292-2.898.224-4.09-1.065-1.19-2.9-1.292-4.09-.224-4.62 4.14-10.535 6.485-16.726 6.66-.14-.162-.282-.32-.434-.472l-6.492-6.49c-1.13-1.133-2.965-1.133-4.096 0l-8.405 8.402-.014.016-.015.014-6.478 6.477c-.577.578-1.345.896-2.16.896-.817 0-1.585-.318-2.163-.896-.578-.577-.895-1.344-.895-2.16 0-.403.077-.793.224-1.155.145-.195.266-.41.36-.638.093-.13.195-.095.31-.21l20.328-21.11c10.85-10.852 28.934-10.852 39.784 0zm-43.152 20.83l4.323-4.324 4.44 4.445c1.194 1.19 1.192 3.13 0 4.32-1.188 1.192-3.128 1.193-4.32 0l-4.444-4.44zm-4.28 4.28l21.902 21.9c1.257 1.257 1.257 3.304 0 4.56s-3.3 1.257-4.56 0c-.19-.19-.403-.348-.627-.473L57.668 43.658c.132-.118.263-.238.39-.365l4.26-4.26zm-47.264-25.11c10.85-10.852 28.507-10.852 39.36-.002l3.993 3.993L45.54 30.78c-.14.14-.275.29-.406.438-5.91-.34-11.528-2.66-15.958-6.628-1.19-1.068-3.023-.967-4.09.224s-.967 3.022.224 4.09c4.947 4.433 11.108 7.178 17.645 7.935 0 .064-.005.13-.005.196 0 2.364.92 4.586 2.592 6.257 1.647 1.648 3.833 2.564 6.16 2.59L82.01 76.19c1.255 1.258 1.255 3.304 0 4.56-1.26 1.257-3.304 1.257-4.562 0L61.682 64.984c-.19-.19-.404-.348-.628-.475l-14.612-14.61c-1.13-1.132-2.965-1.132-4.096 0-1.13 1.13-1.13 2.964 0 4.095L66.413 78.06c.608.608.944 1.42.944 2.28 0 .86-.336 1.67-.944 2.28-.608.607-1.418.942-2.28.942-.86 0-1.67-.335-2.28-.943l-9.867-9.87c-.192-.19-.405-.35-.632-.477L37.71 58.63c-1.132-1.13-2.966-1.13-4.097 0-1.13 1.13-1.132 2.965 0 4.096l16.68 16.68c.608.61.944 1.42.944 2.28 0 .86-.336 1.67-.945 2.28-.61.608-1.418.943-2.28.943-.858 0-1.666-.335-2.275-.942l-6.75-6.748-23.926-23.928-.007-.01C4.2 42.433 4.2 24.776 15.053 13.925zM58.297 91c-1 2-1.96 1.43-2.86 1.412-.987-.023-1.914-.688-2.404-1.12l-1.34-1.357c.992-.443 1.906-1.073 2.697-1.866.82-.82 1.46-1.777 1.908-2.812l1.46 1.46c.818.818 1.766 1.518 2.797 1.964L58.297 91zm8.906 5.386c-1.51 1.51-3.083 2.336-4.544 2.387-1.037.033-2.053-.315-3.03-1.037L72.936 84.43l.416.417c.935.932 2.022 1.615 3.184 2.054-3.62 3.7-7.436 7.587-9.334 9.486z"/></svg>