<svg width="38" height="52" viewBox="0 0 38 52" xmlns="http://www.w3.org/2000/svg"><title>pin-louanne</title><g fill="none" fill-rule="evenodd"><path d="M37.505 18.68c0 16.023-18.546 32.64-18.546 32.64S.413 34.407.413 18.68C.413 8.437 8.716.134 18.959.134c10.243 0 18.546 8.303 18.546 18.546" fill="#05F"/><path d="M18.992 30.405a1.036 1.036 0 0 1-.651-.223l2.862-2.861.088.089c.2.2.435.348.685.442a294.83 294.83 0 0 1-2.006 2.039c-.324.325-.662.502-.978.514zm-.936-1.698c-.216.214-.422.32-.616.316-.213-.004-.411-.141-.516-.233l-.29-.29c.215-.094.41-.228.58-.4.178-.175.316-.38.41-.603l.315.315c.177.177.38.312.6.409l-.483.486zm-.774-16.544l.827.859-2.783 2.765c-.028.03-.065.062-.092.094a5.626 5.626 0 0 1-3.435-1.426.627.627 0 0 0-.882.049c-.23.256-.05.65.206.878 1.065.954 2.574 1.512 4.203 1.6-.278.243-.174.933.186 1.292.353.354.687.492 1.187.498l6.61 6.778c.27.27.19.709-.078.98a.745.745 0 0 1-1.02 0L18.8 23.14a.723.723 0 0 0-.143-.102l-3.146-3.14a.629.629 0 0 0-.884 0 .623.623 0 0 0-.002.88l5.175 5.174a.692.692 0 0 1-.49 1.183.685.685 0 0 1-.491-.202l-2.121-2.122a.668.668 0 0 0-.136-.103l-2.934-2.933a.623.623 0 0 0-.88.88l3.585 3.587a.691.691 0 0 1-.49 1.183.683.683 0 0 1-.488-.202l-1.331-1.451L9 20.627c-3-2.335-2.455-6.131-.121-8.464a5.92 5.92 0 0 1 8.403 0zm1.638 5.399l4.707 4.708a.693.693 0 0 1-.979.98.623.623 0 0 0-.135-.102l-4.593-4.593a1.55 1.55 0 0 0 .084-.078l.916-.915zm.919-.921l.93-.93.955.955a.658.658 0 0 1-.93.93l-.955-.955zm9.362 3.983l-4.716 4.697a1.967 1.967 0 0 0-.44-.652l-.137-.13a1.939 1.939 0 0 0 .602-3.15l-2.507-2.506a1.898 1.898 0 0 0 1.157-1.775 6.85 6.85 0 0 0 3.965-1.726.623.623 0 0 0-.831-.927 5.61 5.61 0 0 1-3.595 1.433 3.092 3.092 0 0 0-.093-.101l-1.397-1.396a.622.622 0 0 0-.881 0l-1.806 1.807-1.4 1.399a.653.653 0 0 1-.927 0 .653.653 0 0 1-.145-.713.582.582 0 0 0 .077-.138c.02-.028.042-.284.068-.31L19.373 13l.955-.968c2.332-2.333 6.52-2.202 8.853.13 2.333 2.334 2.37 6.13.02 8.462zm.839-9.342c-2.692-2.694-7-2.811-9.835-.358a.676.676 0 0 0-.13.098L18.96 12.14l-1.12-1.118a.711.711 0 0 0-.126-.1c-2.838-2.451-7.142-2.334-9.836.36-2.78 2.78-2.814 7.28-.11 10.108.01.012 2.245 2.25 6.707 6.71l2.794 2.473c.495.494 1.078.736 1.692.736.71 0 1.338-.311 1.89-.863.897-.897 9.3-9.055 9.3-9.055 2.706-2.827 2.672-7.328-.11-10.11z" fill="#FFF"/></g></svg>